<svg xmlns="http://www.w3.org/2000/svg" viewBox="0 0 640 400"><rect width="640" height="400" fill="#f6f2ec"/><ellipse cx="320" cy="318" rx="212" ry="42" fill="#2b4e59" opacity=".12"/><path d="M172 154h296v98c0 38-31 68-68 68H240c-38 0-68-31-68-68z" fill="#f2e1bd"/><path d="M172 154c34-47 260-62 296 0-33 41-262 42-296 0z" fill="#faf5e7"/><path d="M198 157c46 24 195 24 244 0-53-25-191-26-244 0z" fill="#272727"/><g fill="#faf5e7"><circle cx="246" cy="151" r="10"/><circle cx="306" cy="142" r="8"/><circle cx="369" cy="150" r="9"/></g><rect x="172" y="232" width="296" height="30" fill="#3a302d" opacity=".28"/></svg>
