<svg xmlns="http://www.w3.org/2000/svg" viewBox="0 0 640 400"><rect width="640" height="400" fill="#f3f4ea"/><ellipse cx="320" cy="318" rx="220" ry="42" fill="#2b4e59" opacity=".12"/><path d="M164 260c12-88 42-146 156-146s144 58 156 146c4 32-22 60-55 60H219c-33 0-59-28-55-60z" fill="#8aa36f"/><path d="M210 182c22-26 57-41 110-41s88 15 110 41c-48 31-172 31-220 0z" fill="#b9cc94"/><path d="M198 254h244c-4 18-14 34-29 45H227c-15-11-25-27-29-45z" fill="#607d58" opacity=".55"/><g fill="#eef2dc"><circle cx="260" cy="178" r="9"/><circle cx="320" cy="164" r="8"/><circle cx="380" cy="178" r="9"/></g></svg>
