<svg xmlns="http://www.w3.org/2000/svg" viewBox="0 0 640 400"><rect width="640" height="400" fill="#f7efe6"/><ellipse cx="320" cy="315" rx="220" ry="44" fill="#2b4e59" opacity=".12"/><rect x="160" y="178" width="320" height="116" rx="22" fill="#f5cfc3"/><path d="M175 205c34 21 55-18 91 2 29 16 50 10 75-4 32-18 56 20 93 0 18-10 33-10 48-3v58H175z" fill="#fff5ea"/><rect x="195" y="118" width="250" height="82" rx="39" fill="#e9a7a1"/><g fill="#f7f4ef"><circle cx="236" cy="132" r="16"/><circle cx="286" cy="117" r="18"/><circle cx="340" cy="123" r="17"/><circle cx="394" cy="132" r="16"/></g><g fill="#bc6e6b"><circle cx="236" cy="132" r="6"/><circle cx="286" cy="117" r="7"/><circle cx="340" cy="123" r="6"/><circle cx="394" cy="132" r="6"/></g></svg>
